HIERARCHY
ROOT SimulationBone
{
	OFFSET 0.000000 0.000000 0.000000
	CHANNELS 6 Xposition Yposition Zposition Zrotation Yrotation Xrotation 
	JOINT Hips
	{
		OFFSET 0.000000 0.000000 0.000000
		CHANNELS 6 Xposition Yposition Zposition Zrotation Yrotation Xrotation 
		JOINT LeftUpLeg
		{
			OFFSET 0.103454 1.857841 10.548504
			CHANNELS 3 Zrotation Yrotation Xrotation
			JOINT LeftLeg
			{
				OFFSET 43.499992 -0.000061 0.000000
				CHANNELS 3 Zrotation Yrotation Xrotation
				JOINT LeftFoot
				{
					OFFSET 42.372196 0.000008 -0.000002
					CHANNELS 3 Zrotation Yrotation Xrotation
					JOINT LeftToe
					{
						OFFSET 17.300022 0.000011 0.000012
						CHANNELS 3 Zrotation Yrotation Xrotation
						End Site
						{
							OFFSET 0.000000 0.000000 0.000000
						}
					}
				}
			}
		}
		JOINT RightUpLeg
		{
			OFFSET 0.103458 1.857820 -10.548491
			CHANNELS 3 Zrotation Yrotation Xrotation
			JOINT RightLeg
			{
				OFFSET 43.500046 0.000015 0.000006
				CHANNELS 3 Zrotation Yrotation Xrotation
				JOINT RightFoot
				{
					OFFSET 42.372269 -0.000046 0.000017
					CHANNELS 3 Zrotation Yrotation Xrotation
					JOINT RightToe
					{
						OFFSET 17.300032 0.000011 0.000015
						CHANNELS 3 Zrotation Yrotation Xrotation
						End Site
						{
							OFFSET 0.000000 0.000000 0.000000
						}
					}
				}
			}
		}
		JOINT Spine
		{
			OFFSET 6.901962 -2.603707 -0.000004
			CHANNELS 3 Zrotation Yrotation Xrotation
			JOINT Spine1
			{
				OFFSET 12.588104 -0.000004 -0.000001
				CHANNELS 3 Zrotation Yrotation Xrotation
				JOINT Spine2
				{
					OFFSET 12.343199 -0.000026 0.000003
					CHANNELS 3 Zrotation Yrotation Xrotation
					JOINT Neck
					{
						OFFSET 25.832890 0.000004 -0.000006
						CHANNELS 3 Zrotation Yrotation Xrotation
						JOINT Head
						{
							OFFSET 11.766623 0.000031 0.000004
							CHANNELS 3 Zrotation Yrotation Xrotation
							End Site
							{
								OFFSET 0.000000 0.000000 0.000000
							}
						}
					}
					JOINT LeftShoulder
					{
						OFFSET 19.745897 -1.480345 6.000100
						CHANNELS 3 Zrotation Yrotation Xrotation
						JOINT LeftArm
						{
							OFFSET 11.284126 0.000003 -0.000015
							CHANNELS 3 Zrotation Yrotation Xrotation
							JOINT LeftForeArm
							{
								OFFSET 33.000057 -0.000023 0.000027
								CHANNELS 3 Zrotation Yrotation Xrotation
								JOINT LeftHand
								{
									OFFSET 25.199987 0.000051 0.000021
									CHANNELS 3 Zrotation Yrotation Xrotation
									End Site
									{
										OFFSET 0.000000 0.000000 0.000000
									}
								}
							}
						}
					}
					JOINT RightShoulder
					{
						OFFSET 19.746086 -1.480362 -6.000076
						CHANNELS 3 Zrotation Yrotation Xrotation
						JOINT RightArm
						{
							OFFSET 11.284140 0.000004 -0.000015
							CHANNELS 3 Zrotation Yrotation Xrotation
							JOINT RightForeArm
							{
								OFFSET 33.000084 -0.000023 0.000011
								CHANNELS 3 Zrotation Yrotation Xrotation
								JOINT RightHand
								{
									OFFSET 25.199789 0.000148 0.000422
									CHANNELS 3 Zrotation Yrotation Xrotation
									End Site
									{
										OFFSET 0.000000 0.000000 0.000000
									}
								}
							}
						}
					}
				}
			}
		}
	}
}
MOTION
Frames: 15
Frame Time: 0.016667
-263.760491 0.000000 95.082365 0.000000 236.985505 0.000000 2.242588 90.176071 -0.722758 96.565669 0.612773 -178.262472 174.157366 -6.495298 164.174293 -40.199009 1.314105 -12.390320 75.757534 6.547783 -8.177107 21.454555 0.003106 -0.000000 -177.480744 -0.138011 -166.034304 -19.077224 4.423304 12.151604 83.247690 -8.032110 2.245760 21.454558 -0.003111 -0.000017 7.001606 1.442610 1.220332 4.022524 2.842367 2.490297 3.704314 2.857476 2.473077 -1.230229 -2.033539 1.818032 -16.058162 3.476583 0.243824 -155.686825 -78.842118 -26.277272 18.642744 65.306114 35.758292 -23.905346 -13.616269 1.037218 13.827034 3.036197 44.596169 -164.696077 71.104315 17.127351 -12.840965 -53.881820 -21.366933 -44.601121 14.863863 -1.604738 5.539552 0.021532 -22.584167 
-263.610515 0.000000 95.005323 0.000000 239.372260 0.000000 2.225802 90.306881 -0.691239 96.340447 0.713087 -179.111775 175.994211 -6.052628 163.612216 -36.208069 1.206949 -11.622374 77.250180 5.351025 -10.991452 21.454550 0.003094 -0.000001 -177.453056 -0.273640 -165.840706 -18.447722 4.200325 12.958210 82.875060 -8.487868 2.740641 21.454562 -0.003110 -0.000018 6.901839 1.307544 1.212686 3.819540 2.574791 2.467968 3.501417 2.589779 2.452381 -1.551685 -2.849406 1.317528 -15.300373 4.206856 -0.661493 -155.420411 -78.530944 -26.554966 16.461611 65.232743 33.971486 -23.602147 -13.526061 1.026973 13.278084 2.353928 44.838784 -164.372109 71.473077 17.458257 -12.570140 -54.243850 -21.888350 -44.844793 14.852920 -1.610322 5.196444 -0.277322 -22.190344 
-263.450984 0.000000 94.924150 0.000000 241.693465 0.000000 2.233431 90.484177 -0.644629 96.165709 0.731511 -179.750248 177.881704 -5.624995 162.963095 -31.984057 0.733000 -10.760674 78.772058 4.884996 -10.984703 21.454551 0.003091 0.000000 -177.243450 -0.360790 -165.669626 -17.613559 4.052616 13.862529 82.399818 -9.017735 3.225957 21.454562 -0.003110 -0.000018 6.813223 1.162756 1.178945 3.638235 2.288318 2.393856 3.320166 2.302866 2.380005 -1.562988 -3.658515 0.770111 -14.825067 4.839398 -1.575059 -155.659272 -78.304684 -26.316781 14.308988 65.178383 32.469571 -23.465330 -13.524255 1.024933 12.639252 1.280968 44.687082 -163.982049 71.855684 17.856514 -12.053066 -54.562479 -22.257419 -45.252068 14.751202 -1.616498 5.068296 -0.741600 -22.113603 
-263.283059 0.000000 94.839993 0.000000 243.939524 0.000000 2.249176 90.702875 -0.581593 96.038463 0.650397 179.807952 179.679820 -5.116275 162.697407 -27.772380 0.057256 -9.996789 79.885989 4.817728 -9.435732 21.454553 0.003093 0.000002 -176.941311 -0.383228 -165.196879 -16.721702 3.842610 14.671181 81.853628 -9.483244 3.701567 21.454560 -0.003110 -0.000018 6.749226 0.997090 1.123254 3.505596 1.960138 2.276108 3.187564 1.973980 2.264239 -1.389788 -4.418783 0.164769 -14.605796 5.439984 -2.527515 -156.220377 -78.129313 -25.749270 11.987234 65.123014 30.909258 -23.470211 -13.555456 1.026962 11.949971 -0.116635 44.271516 -163.572560 72.151500 18.275021 -11.400375 -54.801763 -22.524369 -45.708998 14.651911 -1.623963 5.041222 -1.256422 -22.161313 
-263.107897 0.000000 94.754001 0.000000 246.102398 0.000000 2.256941 90.957893 -0.503230 95.956543 0.451042 179.547078 -178.743059 -4.459797 163.287857 -23.813093 -0.623962 -9.492740 80.197628 4.910523 -7.634190 21.454555 0.003095 0.000002 -176.635222 -0.327606 -164.097494 -15.921417 3.442796 15.187639 81.271013 -9.746523 4.163708 21.454558 -0.003110 -0.000018 6.723336 0.799449 1.049685 3.448680 1.567676 2.122590 3.130681 1.580599 2.113089 -1.158640 -5.090097 -0.505503 -14.618876 6.075063 -3.547936 -156.937801 -77.970470 -25.021885 9.309191 65.030482 28.957860 -23.592213 -13.564231 1.029321 11.247705 -1.770679 43.719866 -163.202998 72.260317 18.653994 -10.725140 -54.926351 -22.736097 -46.102065 14.648258 -1.635098 4.998804 -1.705271 -22.139667 
-262.926658 0.000000 94.667323 0.000000 248.175639 0.000000 2.241901 91.235561 -0.418745 95.921854 0.123992 179.443112 -177.471165 -3.625863 165.017703 -20.299017 -1.123473 -9.347452 79.476589 5.032592 -6.580507 21.454552 0.003096 -0.000000 -176.414001 -0.166474 -162.244141 -15.378335 2.809139 15.319164 80.709659 -9.741299 4.618457 21.454557 -0.003109 -0.000017 6.747249 0.563726 0.964403 3.491139 1.098459 1.945227 3.173175 1.110324 1.938559 -0.980063 -5.665698 -1.230370 -14.820466 6.812464 -4.655168 -157.716783 -77.812383 -24.231350 6.157864 64.864074 26.400388 -23.807745 -13.516197 1.029432 10.569058 -3.558583 43.115757 -162.913801 72.130080 18.952760 -10.120385 -54.937321 -22.885701 -46.333057 14.794547 -1.651421 4.868822 -1.978296 -21.928178 
-262.740501 0.000000 94.581106 0.000000 250.154366 0.000000 2.194805 91.487862 -0.362646 95.949749 -0.299942 179.443757 -176.455738 -2.656297 167.414152 -17.262188 -1.377133 -9.519130 78.168372 5.233106 -6.072485 21.454550 0.003097 -0.000002 -176.375538 0.194102 -160.303297 -15.330018 2.200675 15.397292 80.308639 -9.685928 5.126722 21.454558 -0.003108 -0.000017 6.825357 0.303537 0.882330 3.642389 0.579458 1.773672 3.324446 0.590301 1.770142 -0.895529 -6.264302 -1.943257 -15.076599 7.727118 -5.827271 -158.733622 -77.709209 -23.197084 2.630466 64.653947 23.425683 -24.097387 -13.461168 1.030160 9.966645 -5.150126 42.374236 -162.633060 71.899581 19.243770 -9.590122 -54.982290 -22.762445 -46.363408 14.989473 -1.665535 4.767582 -1.994185 -21.706437 
-262.550584 0.000000 94.496500 0.000000 252.035174 0.000000 2.110988 91.668577 -0.359076 96.028223 -0.760176 179.482989 -175.662933 -1.630597 169.843414 -14.719160 -1.387653 -9.881676 76.815430 5.537123 -5.686625 21.454551 0.003101 -0.000001 -176.650482 0.811352 -158.917900 -16.015323 1.825321 15.734974 80.137533 -9.781459 5.766380 21.454558 -0.003108 -0.000018 6.950715 0.038797 0.819716 3.888935 0.050304 1.640253 3.570986 0.060350 1.639929 -0.900287 -6.980169 -2.586609 -15.270357 8.842249 -7.023785 -160.122746 -77.706180 -21.781564 -1.132788 64.438369 20.299777 -24.461219 -13.461270 1.035731 9.502950 -6.249034 41.409574 -162.308392 71.732226 19.579007 -9.085240 -55.214743 -22.193784 -46.190843 15.112533 -1.668729 4.813606 -1.715732 -21.670023 
-262.358067 0.000000 94.414652 0.000000 253.816011 0.000000 1.981703 91.773033 -0.364556 96.027077 -1.122686 179.472253 -175.210007 -0.788406 171.773329 -12.759676 -1.269777 -10.095127 75.658360 5.746471 -5.310182 21.454553 0.003103 0.000001 -177.492738 1.501909 -157.839169 -17.584061 1.397194 16.129106 79.924236 -9.867970 6.609982 21.454558 -0.003109 -0.000018 7.078851 -0.205066 0.789694 4.141879 -0.438000 1.571624 3.823902 -0.428365 1.574252 -0.880580 -7.681737 -3.194227 -15.432923 9.948737 -8.177835 -161.526882 -77.757491 -20.349969 -4.927348 64.183607 17.300494 -24.972826 -13.543794 1.048739 9.264405 -6.896884 40.330637 -162.099007 71.701417 19.794389 -8.443323 -55.658854 -21.350084 -45.900113 15.121957 -1.660288 4.939342 -1.247176 -21.775802 
-262.164107 0.000000 94.336712 0.000000 255.496023 0.000000 1.797769 91.805847 -0.334936 95.830346 -1.289687 179.346256 -175.217664 -0.336393 172.891369 -11.451203 -1.201579 -9.903868 74.824312 5.696732 -4.898585 21.454552 0.003099 0.000001 -179.080683 2.107117 -156.745665 -20.089768 0.639890 16.364274 79.407487 -9.770072 7.681157 21.454557 -0.003109 -0.000017 7.170189 -0.407451 0.796913 4.321839 -0.844126 1.578238 4.003826 -0.834451 1.583307 -0.740412 -8.252864 -3.797454 -15.606182 10.865639 -9.233003 -162.559577 -77.799467 -19.297111 -8.539634 63.858387 14.654968 -25.716067 -13.713411 1.071183 9.297820 -7.198769 39.258321 -162.159908 71.865686 19.730217 -7.529235 -56.309658 -20.480828 -45.580132 15.027889 -1.644128 5.068143 -0.708099 -21.925422 
-261.969864 0.000000 94.263827 0.000000 257.075382 0.000000 1.576596 91.767258 -0.286985 95.518624 -1.352802 179.155820 -175.576815 -0.220993 173.692448 -10.709536 -1.426977 -9.565865 74.295423 5.584304 -4.403083 21.454551 0.003094 -0.000000 178.834884 2.762796 -155.907688 -23.291657 -0.160001 16.623885 78.688136 -9.641900 8.821322 21.454557 -0.003108 -0.000017 7.242615 -0.572184 0.813491 4.464393 -1.175085 1.604579 4.146347 -1.165246 1.611639 -0.556065 -8.874294 -4.318072 -15.768448 11.765901 -10.204753 -163.299603 -77.756801 -18.543395 -11.831520 63.446288 12.326966 -26.741677 -13.919446 1.101453 9.475219 -7.196749 38.152814 -162.427006 72.310819 19.451116 -6.443489 -57.170911 -19.794471 -45.248134 14.969565 -1.630762 5.273178 -0.139005 -22.034515 
-261.776497 0.000000 94.197146 0.000000 258.555126 0.000000 1.342691 91.660756 -0.245066 95.217742 -1.428162 178.982628 -176.145017 -0.309089 174.710213 -10.466091 -2.075121 -9.367943 74.035238 5.613687 -3.813600 21.454550 0.003094 0.000000 176.580813 3.612947 -155.608990 -26.898918 -0.662945 17.049273 77.920748 -9.650372 9.833391 21.454556 -0.003106 -0.000018 7.326688 -0.710770 0.808654 4.630815 -1.453106 1.588561 4.312737 -1.443353 1.597314 -0.422926 -9.717078 -4.687107 -15.898523 12.818551 -11.117179 -163.913961 -77.570542 -17.918899 -14.746772 62.926230 10.238399 -28.042575 -14.110059 1.136267 9.648701 -6.930856 36.960771 -162.819071 73.055317 19.040476 -5.321605 -58.187212 -19.463065 -44.917309 15.076592 -1.628402 5.621539 0.426402 -22.012380 
-261.585165 0.000000 94.137817 0.000000 259.936991 0.000000 1.110048 91.507202 -0.212292 95.015545 -1.567649 178.915886 -176.925122 -0.387997 175.805272 -10.856046 -2.802721 -9.196296 74.066393 5.658365 -3.255390 21.454551 0.003095 0.000001 174.383008 4.674802 -155.579511 -30.695323 -0.963162 17.364282 77.148714 -9.653667 10.524643 21.454557 -0.003106 -0.000018 7.445514 -0.841297 0.773469 4.867396 -1.714174 1.511272 4.549269 -1.704881 1.521617 -0.348094 -10.607097 -4.984178 -16.004001 13.820060 -11.949039 -164.480721 -77.271899 -17.343380 -17.487163 62.257575 8.403622 -29.413959 -14.284166 1.172553 9.764567 -6.479199 35.728538 -163.360967 73.821801 18.476817 -4.231786 -59.076428 -19.532701 -44.658303 15.310610 -1.635813 6.002638 0.902019 -21.736848 
-261.397026 0.000000 94.086990 0.000000 261.223264 0.000000 0.890757 91.333015 -0.185762 94.961395 -1.789862 179.015076 -177.901781 -0.284038 176.703463 -11.931471 -3.249096 -8.871043 74.374483 5.550848 -2.840280 21.454550 0.003094 0.000002 172.409647 5.938207 -155.505253 -34.484915 -1.253224 17.280013 76.404929 -9.498658 10.668081 21.454558 -0.003109 -0.000017 7.610456 -0.979081 0.710591 5.196885 -1.988892 1.376972 4.878674 -1.980414 1.388972 -0.299202 -11.333573 -5.303544 -16.101146 14.543895 -12.676807 -165.113344 -76.930030 -16.700296 -20.225883 61.424983 6.862681 -30.644902 -14.453967 1.207260 9.786189 -5.925169 34.514491 -164.016728 74.326014 17.800343 -3.239968 -59.587136 -19.967975 -44.512530 15.598282 -1.650115 6.293120 1.237038 -21.145684 
-261.213239 0.000000 94.045811 0.000000 262.416652 0.000000 0.701307 91.169479 -0.160987 94.988787 -2.053881 179.214518 -178.864828 -0.048898 177.280538 -13.201749 -3.456807 -8.366866 74.751051 5.294263 -2.494236 21.454550 0.003091 0.000001 170.662904 7.305999 -155.469845 -38.080862 -1.539405 16.789018 75.764057 -9.286488 9.919902 21.454560 -0.003112 -0.000017 7.793326 -1.122040 0.647610 5.562586 -2.273739 1.241069 5.244281 -2.266087 1.254782 -0.174097 -11.886874 -5.651733 -16.245349 15.044591 -13.323320 -166.129283 -76.674824 -15.664695 -22.833564 60.554290 5.589001 -31.698183 -14.632838 1.239908 9.640415 -5.334111 33.330236 -164.479014 74.554899 17.324996 -2.396333 -59.816302 -20.615930 -44.345217 15.894574 -1.665081 6.495362 1.578222 -20.435180 
